<?xml version="1.0" encoding="UTF-8" standalone="no"?>
<!-- Created with Inkscape (http://www.inkscape.org/) -->

<svg
   version="1.1"
   id="svg1"
   width="90.333069"
   height="37.933029"
   viewBox="0 0 90.333068 37.93303"
   sodipodi:docname="360_F_344005736_5FLzToSW7W1GkhYI2CVclFrX22e3AES6.svg"
   inkscape:version="1.4.2 (f4327f4, 2025-05-13)"
   xmlns:inkscape="http://www.inkscape.org/namespaces/inkscape"
   xmlns:sodipodi="http://sodipodi.sourceforge.net/DTD/sodipodi-0.dtd"
   xmlns:xlink="http://www.w3.org/1999/xlink"
   xmlns="http://www.w3.org/2000/svg"
   xmlns:svg="http://www.w3.org/2000/svg">
  <defs
     id="defs1">
    <linearGradient
       id="linearGradient5"
       inkscape:collect="always">
      <stop
         style="stop-color:#012dc7;stop-opacity:1;"
         offset="0"
         id="stop5" />
      <stop
         style="stop-color:#107dfe;stop-opacity:1;"
         offset="0.4894309"
         id="stop7" />
      <stop
         style="stop-color:#27a3fd;stop-opacity:1;"
         offset="1"
         id="stop6" />
    </linearGradient>
    <inkscape:path-effect
       effect="bspline"
       id="path-effect4"
       is_visible="true"
       lpeversion="1.3"
       weight="33.333333"
       steps="2"
       helper_size="0"
       apply_no_weight="true"
       apply_with_weight="true"
       only_selected="false"
       uniform="false" />
    <inkscape:path-effect
       effect="bspline"
       id="path-effect3"
       is_visible="true"
       lpeversion="1.3"
       weight="33.333333"
       steps="2"
       helper_size="0"
       apply_no_weight="true"
       apply_with_weight="true"
       only_selected="false"
       uniform="false" />
    <inkscape:path-effect
       effect="bspline"
       id="path-effect2"
       is_visible="true"
       lpeversion="1.3"
       weight="33.333333"
       steps="2"
       helper_size="0"
       apply_no_weight="true"
       apply_with_weight="true"
       only_selected="false"
       uniform="false" />
    <inkscape:path-effect
       effect="bspline"
       id="path-effect1"
       is_visible="true"
       lpeversion="1.3"
       weight="33.333333"
       steps="2"
       helper_size="0"
       apply_no_weight="true"
       apply_with_weight="true"
       only_selected="false"
       uniform="false" />
    <linearGradient
       inkscape:collect="always"
       xlink:href="#linearGradient5"
       id="linearGradient6"
       x1="18.351182"
       y1="57.859238"
       x2="108.68425"
       y2="57.859238"
       gradientUnits="userSpaceOnUse" />
  </defs>
  <sodipodi:namedview
     id="namedview1"
     pagecolor="#ffffff"
     bordercolor="#000000"
     borderopacity="0.25"
     inkscape:showpageshadow="2"
     inkscape:pageopacity="0.0"
     inkscape:pagecheckerboard="0"
     inkscape:deskcolor="#d1d1d1"
     inkscape:zoom="2"
     inkscape:cx="13.75"
     inkscape:cy="-3.75"
     inkscape:window-width="1920"
     inkscape:window-height="974"
     inkscape:window-x="-11"
     inkscape:window-y="-11"
     inkscape:window-maximized="1"
     inkscape:current-layer="g1" />
  <g
     inkscape:groupmode="layer"
     inkscape:label="Image"
     id="g1"
     transform="translate(-18.351182,-38.892723)">
    <g
       id="g5"
       style="fill:url(#linearGradient6)">
      <g
         id="g4"
         transform="translate(0.35355339,0.35355339)"
         style="fill:url(#linearGradient6)">
        <path
           style="fill:url(#linearGradient6)"
           d="m 35.432158,39.351598 c -1.001542,0.158642 -1.952817,0.324884 -2.816361,0.528071 -0.863544,0.203188 -1.639326,0.44331 -2.419749,0.70653 -0.780422,0.26322 -1.565439,0.54952 -2.276593,0.863537 -0.711154,0.314017 -1.348403,0.65573 -2.004143,1.062104 -0.65574,0.406375 -1.329931,0.877385 -1.805572,1.237579 -0.47564,0.360195 -0.752705,0.609553 -1.057486,0.928188 -0.30478,0.318635 -0.637258,0.706525 -0.992836,1.112899 -0.355577,0.406375 -0.734232,0.831208 -1.04363,1.274525 -0.309397,0.443317 -0.54952,0.905092 -0.743471,1.339173 -0.193951,0.434081 -0.341719,0.840443 -0.526435,1.311468 -0.184716,0.471025 -0.406367,1.006683 -0.61879,1.570066 -0.212423,0.563382 -0.415604,1.154454 -0.563376,1.810195 -0.147771,0.65574 -0.240126,1.376109 -0.286305,2.004141 -0.04618,0.628031 -0.04618,1.16369 -0.05541,1.653185 -0.0092,0.489496 -0.02771,0.932799 -0.03694,1.357645 -0.0092,0.424845 -0.0092,0.831207 0.05542,1.44077 0.06465,0.609563 0.193948,1.422286 0.295541,2.078025 0.101593,0.655738 0.175477,1.154455 0.304778,1.727074 0.129301,0.572618 0.314011,1.219103 0.554142,1.819428 0.240131,0.600324 0.535667,1.154454 0.766561,1.607006 0.230893,0.452552 0.397132,0.8035 0.683442,1.256054 0.28631,0.452554 0.692672,1.006684 1.117518,1.468472 0.424846,0.461787 0.868149,0.831207 1.431533,1.283761 0.563383,0.452554 1.24681,0.988212 1.902549,1.45 0.65574,0.461788 1.283754,0.849679 1.939494,1.182166 0.65574,0.332487 1.339166,0.609552 1.994906,0.87739 0.65574,0.267837 1.283753,0.526431 2.068796,0.757325 0.785042,0.230894 1.727062,0.434075 2.493629,0.591083 0.766568,0.157007 1.35764,0.267833 2.004145,0.378662 0.646504,0.11083 1.348402,0.221656 2.059556,0.295542 0.711155,0.07389 1.431523,0.110827 2.493641,0.14777 1.062117,0.03694 2.465912,0.07389 3.564966,0.08312 1.099054,0.0092 1.893307,-0.0092 2.798414,-0.04618 0.905106,-0.03694 1.921011,-0.09235 2.909238,-0.129297 0.988228,-0.03694 1.948719,-0.05541 2.807645,-0.129298 0.858926,-0.07389 1.616236,-0.203183 2.493636,-0.350956 0.8774,-0.147773 1.874833,-0.314012 2.742994,-0.517199 0.868162,-0.203187 1.607001,-0.44331 2.345863,-0.720384 0.738862,-0.277073 1.477702,-0.59108 2.235035,-0.914332 0.757334,-0.323252 1.533115,-0.65573 2.225797,-1.043633 0.692682,-0.387903 1.302225,-0.831207 1.814498,-1.254802 0.512273,-0.423596 0.927248,-0.827457 1.31107,-1.225314 0.383822,-0.397857 0.736468,-0.789686 1.056471,-1.188058 0.320003,-0.398371 0.607344,-0.803261 0.848979,-1.168978 0.241634,-0.365718 0.437548,-0.692242 0.666122,-1.116737 0.228574,-0.424495 0.489794,-0.946934 0.692244,-1.502042 0.202451,-0.555108 0.346121,-1.142851 0.424488,-1.62612 0.07837,-0.483269 0.09143,-0.862037 0.05009,-1.046466 -0.04133,-0.184429 -0.137061,-0.174513 -0.348322,-0.167203 -0.211261,0.0073 -0.538042,0.01201 -0.878216,-0.0059 -0.340174,-0.0179 -0.693721,-0.05842 -1.095156,-0.122866 -0.401436,-0.06445 -0.850734,-0.15284 -1.346082,-0.270693 -0.495349,-0.117854 -1.036716,-0.265164 -1.539429,-0.434577 -0.502714,-0.169413 -0.966744,-0.360918 -1.386592,-0.567159 -0.419849,-0.206242 -0.795492,-0.427208 -1.184036,-0.668437 -0.388544,-0.24123 -0.789967,-0.502707 -1.182399,-0.791576 -0.392432,-0.288868 -0.77585,-0.60511 -1.035492,-0.901582 -0.259642,-0.296472 -0.395496,-0.573157 -0.495757,-0.558179 -0.100261,0.01498 -0.164925,0.321608 -0.201164,0.631831 -0.03624,0.310223 -0.04405,0.624019 -0.07921,0.911131 -0.03516,0.287112 -0.09766,0.547523 -0.151693,0.847656 -0.05404,0.300133 -0.09961,0.639972 -0.150892,0.901127 -0.05128,0.261156 -0.108276,0.443618 -0.178206,0.648101 -0.06993,0.204483 -0.152791,0.430972 -0.255912,0.640896 -0.103121,0.209925 -0.226494,0.40327 -0.389462,0.612274 -0.162968,0.209004 -0.36552,0.433653 -0.552427,0.627004 -0.186906,0.193351 -0.358155,0.355394 -0.53033,0.515599 -0.172175,0.160205 -0.345265,0.318565 -0.557032,0.46588 -0.211766,0.147315 -0.462194,0.283578 -0.777082,0.441942 -0.314887,0.158364 -0.694213,0.33882 -1.139842,0.522965 -0.44563,0.184144 -0.957536,0.371966 -1.491554,0.500866 -0.534018,0.1289 -1.090118,0.198873 -1.695953,0.278055 -0.605835,0.07918 -1.261368,0.167569 -1.950068,0.215446 -0.6887,0.04788 -1.410524,0.05524 -2.15815,0.06998 -0.747625,0.01473 -1.521008,0.03683 -2.128683,0.04419 -0.607675,0.0074 -1.049606,-10e-7 -2.239185,-0.01842 -1.18958,-0.01842 -3.126719,-0.04788 -4.327048,-0.09232 -1.200329,-0.04445 -1.663791,-0.103874 -2.124698,-0.170047 -0.460907,-0.06617 -0.919231,-0.139088 -1.289026,-0.212006 -0.369794,-0.07292 -0.651038,-0.145832 -0.963541,-0.229167 -0.312504,-0.08333 -0.656247,-0.177082 -1.052085,-0.335939 -0.395838,-0.158856 -0.843745,-0.38281 -1.257812,-0.632812 -0.414066,-0.250003 -0.794267,-0.526039 -1.087238,-0.751302 -0.29297,-0.225262 -0.498695,-0.399737 -0.703124,-0.63672 -0.20443,-0.236982 -0.407551,-0.536455 -0.564582,-0.782598 -0.157031,-0.246143 -0.267963,-0.438943 -0.382358,-0.704759 -0.114394,-0.265816 -0.232243,-0.604631 -0.339046,-0.94714 -0.106804,-0.342509 -0.202556,-0.688689 -0.279896,-1.156417 -0.07734,-0.467727 -0.136265,-1.056971 -0.184142,-1.502599 -0.04788,-0.445627 -0.0847,-0.747614 -0.09576,-1.079074 -0.01105,-0.33146 0.0037,-0.692372 0.03683,-1.005417 0.03315,-0.313045 0.0847,-0.578204 0.132582,-0.913348 0.04788,-0.335144 0.09207,-0.740248 0.169411,-1.200609 0.07734,-0.460361 0.187824,-0.97595 0.349872,-1.406846 0.162047,-0.430897 0.375648,-0.777078 0.585573,-1.101171 0.209924,-0.324094 0.416159,-0.626081 0.677645,-0.913346 0.261485,-0.287265 0.578204,-0.559791 0.920712,-0.821275 0.342509,-0.261485 0.710786,-0.511913 1.145367,-0.72552 0.434581,-0.213607 0.935438,-0.39038 1.439993,-0.548744 0.504556,-0.158364 1.012779,-0.29831 1.561529,-0.405113 0.54875,-0.106803 1.137994,-0.180459 1.741987,-0.235702 0.603993,-0.05524 1.2227,-0.09207 1.896668,-0.114168 0.673968,-0.0221 1.403158,-0.02946 2.139735,-0.06261 0.736577,-0.03315 1.480497,-0.09207 2.334927,-0.114169 0.854431,-0.0221 1.819318,-0.0074 2.581673,0.0221 0.762355,0.02946 1.322136,0.07366 2.018203,0.132582 0.696067,0.05893 1.528374,0.132582 2.294413,0.187825 0.766039,0.05524 1.465766,0.09207 2.021881,0.184143 0.556114,0.09207 0.968584,0.239384 1.395799,0.3867 0.427215,0.147315 0.869148,0.294626 1.248484,0.445624 0.379337,0.150999 0.696055,0.305675 1.012783,0.5156 0.316728,0.209925 0.633447,0.475085 0.924395,0.718155 0.290947,0.24307 0.556107,0.464036 0.766031,0.703424 0.209924,0.239388 0.3646,0.497182 0.497184,0.703423 0.132584,0.206241 0.243067,0.360917 0.360919,0.615038 0.117853,0.25412 0.243067,0.607666 0.346188,0.928076 0.10312,0.32041 0.184141,0.607667 0.305677,0.91703 0.121535,0.309363 0.283577,0.640812 0.441941,0.928076 0.158364,0.287265 0.313041,0.530328 0.508234,0.821277 0.195193,0.290948 0.430891,0.629763 0.743937,0.953857 0.313046,0.324094 0.70342,0.633447 1.042245,0.887565 0.338825,0.254119 0.626081,0.452989 0.979639,0.692376 0.353557,0.239388 0.773393,0.519279 1.163778,0.747618 0.390386,0.228338 0.751298,0.405111 1.230074,0.563475 0.478777,0.158364 1.075386,0.298309 1.664648,0.434576 0.589261,0.136266 1.171139,0.268846 1.675694,0.346186 0.504554,0.07734 0.931756,0.09944 1.491556,0.128899 0.5598,0.02946 1.252161,0.06629 2.00347,0.08471 0.751309,0.01841 1.561519,0.01841 2.46751,0.01841 0.905991,0 1.907705,0 2.769499,0.01105 0.861793,0.01105 1.583617,0.03314 2.867267,0.01915 1.28365,-0.01399 3.129037,-0.06406 4.84864,-0.09952 1.719604,-0.03545 3.313322,-0.05629 4.526872,-0.04066 1.21355,0.01563 2.046867,0.06771 2.630203,0.104166 0.583337,0.03646 0.916664,0.05729 1.223958,0.08854 0.307294,0.03125 0.588539,0.07292 0.859374,0.135417 0.270836,0.0625 0.531248,0.145833 0.776042,0.270834 0.244794,0.125002 0.473956,0.291665 0.640624,0.458334 0.166668,0.166668 0.270832,0.333331 0.348958,0.593751 0.07813,0.26042 0.130208,0.61458 0.171875,0.890624 0.04167,0.276044 0.07292,0.473956 0.03646,0.713543 -0.03646,0.239586 -0.140624,0.52083 -0.244792,0.755207 -0.104168,0.234377 -0.208332,0.421873 -0.359376,0.562499 -0.151043,0.140626 -0.348956,0.234374 -0.567708,0.348959 -0.218753,0.114584 -0.458332,0.249998 -0.739585,0.359374 -0.281254,0.109376 -0.604163,0.192708 -1.000002,0.229166 -0.395838,0.03646 -0.864578,0.02604 -1.500003,0.01563 -0.635425,-0.01042 -1.437492,-0.02083 -2.312501,-0.02604 -0.87501,-0.0052 -1.822907,-0.0052 -2.864585,-0.01563 -1.041679,-0.01042 -2.177072,-0.03125 -3.479171,-0.04167 -1.302098,-0.01042 -2.770818,-0.01042 -4.94793,-0.0052 -2.177112,0.0052 -5.062471,0.01563 -6.512991,0.05208 -1.450521,0.03646 -1.466144,0.09896 -1.499997,0.231772 -0.03385,0.132814 -0.08594,0.335936 -0.203126,0.570314 -0.117189,0.234377 -0.299477,0.499997 -0.497396,0.8125 -0.197919,0.312504 -0.411456,0.671872 -0.611979,0.976562 -0.200523,0.30469 -0.388019,0.554685 -0.588542,0.804688 -0.200523,0.250002 -0.41406,0.499997 -0.607372,0.692864 -0.193311,0.192868 -0.366385,0.328597 -0.631545,0.575085 -0.26516,0.246487 -0.62239,0.603717 -0.97963,0.894664 -0.357239,0.290947 -0.714468,0.515596 -1.055135,0.754984 -0.340667,0.239388 -0.664751,0.493499 -1.021991,0.731045 -0.35724,0.237546 -0.747614,0.458512 -1.161939,0.67212 -0.414325,0.213607 -0.852575,0.419842 -1.290838,0.618718 -0.438263,0.198876 -0.876513,0.39038 -1.178509,0.510073 -0.301996,0.119693 -0.467719,0.167569 -0.595639,0.209581 -0.12792,0.04201 -0.218022,0.07815 -0.323905,0.119587 -0.105883,0.04143 -0.227539,0.08815 5.697062,0.107684 5.9246,0.01953 17.894975,0.01188 29.865591,0.0042 0.792294,-0.100988 1.584587,-0.201975 2.249588,-0.329811 0.665,-0.127835 1.202685,-0.282511 1.629902,-0.448241 0.42721,-0.16573 0.74393,-0.342505 1.17483,-0.504552 0.4309,-0.162046 0.97595,-0.309357 1.41053,-0.497182 0.43457,-0.187826 0.75866,-0.416161 1.11958,-0.662915 0.36093,-0.246755 0.75866,-0.51191 1.04961,-0.732885 0.29095,-0.220974 0.47509,-0.397747 0.70343,-0.626087 0.22834,-0.228339 0.50086,-0.508228 0.70342,-0.754982 0.20256,-0.246754 0.33514,-0.460354 0.49718,-0.718156 0.16205,-0.257802 0.35356,-0.559792 0.48982,-0.850735 0.13626,-0.290943 0.21729,-0.570842 0.32409,-0.891253 0.10681,-0.320411 0.23939,-0.681323 0.35355,-0.990675 0.11417,-0.309353 0.20993,-0.567166 0.2578,-0.806553 0.0479,-0.239387 0.0479,-0.460353 0.07,-0.839692 0.0221,-0.379339 0.0663,-0.917025 0.0884,-1.44736 0.0221,-0.530334 0.0221,-1.053288 0.004,-1.484183 -0.0184,-0.430895 -0.0552,-0.769719 -0.11785,-1.178518 -0.0626,-0.408798 -0.151,-0.887558 -0.27254,-1.336869 -0.12153,-0.449311 -0.27621,-0.869148 -0.4714,-1.259532 -0.19519,-0.390385 -0.43089,-0.751299 -0.7292,-1.126954 -0.29832,-0.375655 -0.65923,-0.766028 -1.17115,-1.22639 -0.51193,-0.460362 -1.17482,-0.990677 -1.88194,-1.425257 -0.70711,-0.43458 -1.4584,-0.773397 -2.23181,-1.031198 -0.7734,-0.257801 -1.56888,-0.434574 -2.533798,-0.574524 -0.964918,-0.139949 -2.099212,-0.243067 -6.371389,-0.309359 -4.272178,-0.06629 -11.68192,-0.09575 -19.09181,-0.125218 -0.309359,-0.05156 -0.618718,-0.103119 -0.87652,-0.176778 -0.257802,-0.07366 -0.464036,-0.16941 -0.637131,-0.316725 C 71.940746,53.0551 71.800801,52.85623 71.693998,52.646305 71.587195,52.43638 71.513539,52.215414 71.406735,51.880271 71.299931,51.545127 71.159985,51.095829 71.03845,50.716492 70.916915,50.337156 70.813798,50.027803 70.62597,49.626368 70.438142,49.224932 70.165617,48.73144 69.896766,48.256348 69.627915,47.781256 69.362756,47.324592 69.027613,46.8495 68.69247,46.374408 68.287364,45.880916 67.908028,45.464751 67.528691,45.048585 67.175144,44.70977 66.49749,44.157335 65.819836,43.6049 64.818122,42.838884 63.79428,42.234892 62.770437,41.6309 61.724529,41.188967 60.604932,40.783851 59.485334,40.378734 58.292115,40.010457 57.187251,39.730558 56.082386,39.45066 55.06594,39.259156 53.758513,39.115524 c -1.307426,-0.143632 -2.90575,-0.239385 -4.213171,-0.320408 -1.307422,-0.08102 -2.323867,-0.147313 -3.712318,-0.165727 -1.388452,-0.01841 -3.148818,0.01105 -4.426774,0.06261 -1.277956,0.05156 -2.073435,0.125216 -2.997098,0.237567 -0.923663,0.112351 -1.975452,0.263389 -2.976994,0.422031 z"
           id="path1"
           transform="translate(-0.18305817,-0.0847087)"
           inkscape:original-d="m 35.381891,39.343998 c -0.951275,0.166242 -1.90255,0.332484 -2.853825,0.498726 -0.775813,0.240133 -1.551595,0.480256 -2.327392,0.720383 -0.785048,0.286312 -1.570065,0.572612 -2.355098,0.858919 -0.637275,0.341727 -1.274524,0.68344 -1.911786,1.02516 -0.674218,0.471029 -1.348409,0.942039 -2.022614,1.413059 -0.277076,0.249369 -0.554141,0.498727 -0.831211,0.74809 -0.332491,0.387907 -0.664969,0.775797 -0.997454,1.163696 -0.37867,0.42485 -0.757325,0.849683 -1.135988,1.274524 -0.240133,0.461793 -0.480256,0.923568 -0.720383,1.385352 -0.147774,0.406378 -0.295542,0.81274 -0.443313,1.21911 -0.221661,0.53568 -0.443313,1.071338 -0.664969,1.607008 -0.203189,0.591095 -0.40637,1.182167 -0.609555,1.773251 -0.09236,0.720397 -0.184714,1.440766 -0.27707,2.161149 0,0.53568 0,1.071339 0,1.607008 -0.01847,0.443322 -0.03694,0.886625 -0.05541,1.329938 0,0.406378 0,0.81274 0,1.21911 0.129302,0.812756 0.258599,1.625479 0.387898,2.438219 0.07389,0.498737 0.147771,0.997454 0.221656,1.496181 0.184718,0.64651 0.369428,1.292995 0.554141,1.939492 0.295548,0.554152 0.591084,1.108282 0.886626,1.662423 0.166245,0.350963 0.332484,0.701911 0.498726,1.052867 0.406378,0.554152 0.81274,1.108282 1.21911,1.662423 0.443322,0.369434 0.886625,0.738854 1.329938,1.108281 0.683454,0.535681 1.366881,1.071339 2.050321,1.607009 0.628039,0.387906 1.256053,0.775797 1.884079,1.163695 0.683454,0.277076 1.36688,0.554141 2.050321,0.831212 0.628039,0.258604 1.256052,0.517198 1.884079,0.775797 0.942058,0.203189 1.884078,0.40637 2.826118,0.609555 0.591095,0.11083 1.182167,0.221656 1.77325,0.332484 0.701926,0.110831 1.403824,0.221656 2.105735,0.332485 0.720398,0.03694 1.440766,0.07389 2.161149,0.110828 1.403852,0.03694 2.807647,0.07389 4.211471,0.110828 0.794284,-0.01847 1.588537,-0.03694 2.382805,-0.05541 1.015945,-0.05542 2.03185,-0.110828 3.047775,-0.166242 0.96053,-0.01847 1.921021,-0.03694 2.881532,-0.05541 0.757341,-0.129303 1.514651,-0.258599 2.271977,-0.387899 0.997474,-0.166246 1.994907,-0.332484 2.992361,-0.498727 0.738869,-0.240132 1.477708,-0.480255 2.216563,-0.720383 0.738869,-0.314019 1.477709,-0.628026 2.216563,-0.942039 0.775813,-0.332491 1.551594,-0.664969 2.327391,-0.997454 0.609567,-0.443321 1.21911,-0.886625 1.828665,-1.329938 0.414992,-0.403877 0.829966,-0.807739 1.24495,-1.211609 0.35266,-0.391844 0.705306,-0.783673 1.057959,-1.17551 0.287353,-0.404906 0.574694,-0.809796 0.862041,-1.214694 0.195922,-0.326537 0.391836,-0.653061 0.587755,-0.979592 0.261229,-0.522459 0.522449,-1.044898 0.783673,-1.567347 0.143677,-0.587767 0.287347,-1.17551 0.431021,-1.763265 0.01306,-0.378783 0.02612,-0.757551 0.03918,-1.136326 -0.09573,0.0099 -0.191455,0.01983 -0.287182,0.02975 -0.326795,0.0047 -0.653576,0.0094 -0.980364,0.01411 -0.35356,-0.04051 -0.707107,-0.08102 -1.06066,-0.121534 C 68.615129,62.214346 68.16583,62.12596 67.716523,62.037571 67.175133,61.890255 66.633766,61.742944 66.092387,61.59563 65.628339,61.404118 65.164309,61.212614 64.70027,61.021105 64.324612,60.80013 63.948969,60.579164 63.573319,60.358193 63.171881,60.096705 62.770458,59.835228 62.369028,59.573746 61.985594,59.257491 61.602176,58.941249 61.21875,58.625 c -0.135858,-0.276695 -0.271711,-0.55338 -0.407567,-0.830069 -0.06467,0.306644 -0.12933,0.613275 -0.193996,0.919913 -0.0078,0.313808 -0.01563,0.627604 -0.02344,0.941406 -0.0625,0.260422 -0.125,0.520833 -0.1875,0.78125 -0.04557,0.33985 -0.09115,0.679687 -0.136719,1.019531 -0.05699,0.182469 -0.113986,0.36493 -0.170979,0.547395 -0.08287,0.2265 -0.165728,0.45299 -0.248592,0.679485 -0.123378,0.193354 -0.246751,0.386699 -0.370126,0.580049 -0.202561,0.224658 -0.405114,0.449307 -0.60767,0.673961 -0.171256,0.162048 -0.342505,0.324091 -0.513758,0.486136 -0.173097,0.158365 -0.346187,0.316725 -0.519281,0.475087 -0.250439,0.136268 -0.500867,0.272531 -0.751301,0.408796 -0.379341,0.180463 -0.758667,0.360919 -1.138,0.541379 -0.511926,0.187829 -1.023832,0.37565 -1.535748,0.563476 -0.556121,0.06997 -1.11222,0.139948 -1.66833,0.209922 -0.65556,0.08839 -1.311093,0.176777 -1.96664,0.265165 -0.721853,0.0074 -1.443677,0.01473 -2.165515,0.0221 -0.773413,0.0221 -1.546796,0.04419 -2.320194,0.06629 -0.441951,-0.0074 -0.883883,-0.01473 -1.325825,-0.0221 -1.937217,-0.02946 -3.874356,-0.05893 -5.811534,-0.08839 -0.46348,-0.05943 -0.926942,-0.118857 -1.390413,-0.178285 -0.458343,-0.07292 -0.916667,-0.145833 -1.375,-0.21875 -0.281256,-0.07292 -0.5625,-0.145833 -0.84375,-0.21875 -0.343757,-0.09375 -0.6875,-0.1875 -1.03125,-0.28125 -0.447926,-0.223963 -0.895833,-0.447917 -1.34375,-0.671875 -0.380216,-0.276047 -0.760417,-0.552083 -1.140625,-0.828125 -0.205733,-0.174483 -0.411458,-0.348958 -0.617188,-0.523438 -0.203129,-0.299485 -0.40625,-0.598958 -0.609375,-0.898437 -0.110937,-0.192807 -0.221869,-0.385607 -0.332804,-0.57841 -0.117854,-0.338829 -0.235702,-0.677644 -0.353554,-1.016466 -0.09576,-0.346195 -0.191508,-0.692376 -0.287262,-1.038563 -0.05893,-0.589268 -0.117851,-1.178512 -0.176776,-1.767767 -0.03683,-0.302 -0.07366,-0.603987 -0.110486,-0.905981 0.01473,-0.360926 0.02946,-0.721838 0.04419,-1.082757 0.05156,-0.265171 0.10312,-0.53033 0.15468,-0.795495 0.0442,-0.405122 0.08839,-0.810227 0.132582,-1.21534 0.110488,-0.515609 0.220971,-1.031198 0.331457,-1.546796 0.213609,-0.346195 0.42721,-0.692376 0.640815,-1.038563 0.206244,-0.302 0.412479,-0.603987 0.618719,-0.905981 0.316731,-0.272536 0.63345,-0.545061 0.950174,-0.817592 0.368293,-0.250439 0.73657,-0.500867 1.104855,-0.751301 0.500877,-0.17678 1.001734,-0.353553 1.502602,-0.53033 0.508243,-0.139951 1.016466,-0.279897 1.524699,-0.419845 0.589267,-0.07366 1.178511,-0.147314 1.767767,-0.220971 0.61873,-0.03683 1.237437,-0.07366 1.856155,-0.110485 0.729218,-0.0074 1.458408,-0.01473 2.187612,-0.0221 0.74395,-0.05893 1.48787,-0.117851 2.231805,-0.176777 0.964926,0.01473 1.929813,0.02946 2.894719,0.04419 0.559804,0.0442 1.119585,0.08839 1.679378,0.132583 0.832341,0.07366 1.664648,0.147314 2.496971,0.220971 0.699755,0.03683 1.399482,0.07366 2.099223,0.110485 0.412488,0.147317 0.824958,0.294628 1.237437,0.441942 0.441951,0.147317 0.883884,0.294628 1.325825,0.441942 0.316732,0.154682 0.63345,0.309359 0.950175,0.464038 0.316731,0.265171 0.63345,0.530331 0.950175,0.795496 0.26517,0.220975 0.53033,0.441941 0.795495,0.662912 0.154683,0.257805 0.309359,0.515599 0.464039,0.773398 0.110488,0.154683 0.220971,0.309359 0.331456,0.464039 0.12522,0.353561 0.250434,0.707107 0.375651,1.06066 0.08102,0.287268 0.162045,0.574524 0.243068,0.861787 0.162048,0.331463 0.32409,0.662912 0.486136,0.994369 0.154682,0.243072 0.309359,0.486135 0.464038,0.729203 0.235707,0.338829 0.471405,0.677644 0.707107,1.016466 0.39039,0.309366 0.780764,0.618719 1.171146,0.928078 0.287268,0.198878 0.574524,0.397748 0.861786,0.596621 0.419853,0.279902 0.839689,0.559793 1.259534,0.83969 0.360926,0.17678 0.721838,0.353553 1.082757,0.53033 0.596634,0.139951 1.193243,0.279896 1.789864,0.419844 0.581902,0.132586 1.16378,0.265165 1.74567,0.397748 0.427219,0.0221 0.854421,0.04419 1.281631,0.06629 0.69239,0.03683 1.384751,0.07366 2.077126,0.110486 0.810243,0 1.620453,0 2.43068,0 1.001755,0 2.003469,0 3.005204,0 0.721852,0.0221 1.443676,0.04419 2.165514,0.06629 1.845462,-0.05007 3.690849,-0.100148 5.536274,-0.150222 1.593782,-0.02083 3.1875,-0.04167 4.78125,-0.0625 0.83335,0.05208 1.666667,0.104167 2.5,0.15625 0.33334,0.02083 0.666667,0.04167 1,0.0625 0.281255,0.04167 0.5625,0.08333 0.84375,0.125 0.260422,0.08333 0.520833,0.166667 0.78125,0.25 0.229171,0.16667 0.458333,0.333333 0.6875,0.5 0.104169,0.16667 0.208333,0.333333 0.3125,0.5 0.05208,0.354174 0.104167,0.708333 0.15625,1.0625 0.03125,0.197921 0.0625,0.395833 0.09375,0.59375 -0.104169,0.281256 -0.208333,0.5625 -0.3125,0.84375 -0.104169,0.187504 -0.208333,0.375 -0.3125,0.5625 -0.197921,0.09375 -0.395833,0.1875 -0.59375,0.28125 -0.239588,0.135419 -0.479167,0.270833 -0.71875,0.40625 -0.322923,0.08334 -0.645833,0.166667 -0.96875,0.25 -0.46876,-0.01042 -0.9375,-0.02083 -1.40625,-0.03125 -0.8021,-0.01042 -1.604167,-0.02083 -2.40625,-0.03125 -0.947936,0 -1.895833,0 -2.84375,0 -1.13544,-0.02083 -2.270833,-0.04167 -3.40625,-0.0625 -1.46878,0 -2.9375,0 -4.40625,0 -2.885474,0.01042 -5.770833,0.02083 -8.65625,0.03125 -0.01563,0.0625 -0.03125,0.125 -0.04687,0.1875 -0.05208,0.203129 -0.104167,0.40625 -0.15625,0.609375 -0.182295,0.26563 -0.364583,0.53125 -0.546875,0.796875 -0.213546,0.359382 -0.427083,0.71875 -0.640625,1.078125 -0.187504,0.250005 -0.375,0.5 -0.5625,0.75 -0.213546,0.250005 -0.427083,0.5 -0.640625,0.75 -0.173081,0.135735 -0.346155,0.271464 -0.519232,0.407196 -0.357243,0.357244 -0.714473,0.714473 -1.071709,1.071709 -0.357243,0.224658 -0.714472,0.449307 -1.071709,0.673961 -0.324097,0.254122 -0.648181,0.508233 -0.972271,0.76235 -0.39039,0.220975 -0.780764,0.441941 -1.171146,0.662912 -0.438268,0.206244 -0.876518,0.412479 -1.314777,0.618719 -0.438267,0.191512 -0.876517,0.383016 -1.314776,0.574524 -0.165732,0.04788 -0.331457,0.09575 -0.497185,0.143631 -0.09011,0.03615 -0.180213,0.07229 -0.27032,0.108435 -0.121659,0.04672 -0.243314,0.09344 -0.364971,0.140157 C 72.434009,75.890313 96.375,75.875 96.375,75.875 c 0,0 1.584587,-0.201975 2.376881,-0.302963 0.537707,-0.154683 1.075392,-0.309359 1.613089,-0.464039 0.31673,-0.17678 0.63345,-0.353553 0.95017,-0.53033 0.54508,-0.147317 1.09013,-0.294628 1.63519,-0.441942 0.32409,-0.228341 0.64818,-0.456673 0.97227,-0.685009 0.39776,-0.265171 0.79549,-0.53033 1.19324,-0.795495 0.18415,-0.176781 0.36829,-0.353554 0.55243,-0.53033 0.27254,-0.279902 0.54506,-0.559793 0.81759,-0.83969 0.13259,-0.213609 0.26517,-0.42721 0.39775,-0.640815 0.19151,-0.302 0.38302,-0.603987 0.57452,-0.905981 0.081,-0.279902 0.16205,-0.559793 0.24307,-0.839689 0.13259,-0.360926 0.26517,-0.721838 0.39775,-1.082757 0.0957,-0.257805 0.19151,-0.515599 0.28726,-0.773398 0,-0.220976 0,-0.441942 0,-0.662913 0.0442,-0.537707 0.0884,-1.075392 0.13258,-1.613087 0,-0.522975 0,-1.045929 0,-1.568894 -0.0368,-0.338828 -0.0737,-0.677644 -0.11048,-1.016466 -0.0884,-0.478779 -0.17678,-0.95754 -0.26517,-1.43631 -0.15468,-0.419853 -0.30936,-0.839689 -0.46404,-1.259534 -0.2357,-0.360926 -0.4714,-0.721838 -0.7071,-1.082757 -0.36093,-0.39039 -0.72184,-0.780764 -1.08276,-1.171146 -0.66293,-0.530341 -1.32582,-1.06066 -1.98874,-1.59099 -0.75131,-0.338829 -1.5026,-0.677644 -2.2539,-1.016466 -0.79551,-0.17678 -1.59099,-0.353554 -2.386486,-0.53033 -1.13434,-0.103122 -2.268634,-0.20624 -3.402951,-0.30936 -7.410038,-0.02946 -22.22967,-0.08839 -22.22967,-0.08839 0,0 -0.618718,-0.10312 -0.928077,-0.154679 -0.206244,-0.09576 -0.412479,-0.191509 -0.618719,-0.287263 -0.139951,-0.198877 -0.279896,-0.397747 -0.419844,-0.596621 -0.07366,-0.220975 -0.147314,-0.441942 -0.220971,-0.662913 -0.139951,-0.449316 -0.279897,-0.898614 -0.419845,-1.347922 -0.103122,-0.309365 -0.206239,-0.618718 -0.309359,-0.928078 -0.272536,-0.493511 -0.545061,-0.987003 -0.817592,-1.480504 -0.265171,-0.456683 -0.53033,-0.913347 -0.795495,-1.37002 -0.405122,-0.493511 -0.810227,-0.987003 -1.21534,-1.480505 -0.353561,-0.338828 -0.707107,-0.677644 -1.06066,-1.016466 -1.001755,-0.766047 -2.003469,-1.532064 -3.005204,-2.298097 -1.04595,-0.44195 -2.091858,-0.883883 -3.137786,-1.325825 -1.193267,-0.368292 -2.386486,-0.736569 -3.579729,-1.104854 -1.016486,-0.191512 -2.032932,-0.383016 -3.049398,-0.574524 -1.598387,-0.09576 -3.196711,-0.191508 -4.795067,-0.287263 -1.016487,-0.06629 -2.032932,-0.132582 -3.049398,-0.198873 -1.760437,0.02946 -3.520803,0.05893 -5.281204,0.08839 -0.795511,0.07366 -1.59099,0.147314 -2.386485,0.220971 -1.051831,0.151044 -2.10362,0.302083 -3.155429,0.453125 z"
           inkscape:path-effect="#path-effect1" />
      </g>
      <path
         style="fill:url(#linearGradient6)"
         d="m 100.27658,48.92295 c 0,0 -26.08908,0.01455 -26.08908,0.01455 -0.315568,0.05039 -0.631137,0.100786 -0.974909,0.188592 -0.343772,0.08781 -0.715731,0.21302 -1.087699,0.338237 0,0 -0.397748,0.15468 -0.397748,0.15468 0,0 -0.287262,-1.491554 -0.287262,-1.491554 -0.106803,-0.254116 -0.213605,-0.508233 -0.464006,-0.899272 -0.250401,-0.39104 -0.644385,-0.918981 -1.002842,-1.391295 -0.358457,-0.472313 -0.681367,-0.888971 -1.035538,-1.2796 -0.35417,-0.390629 -0.739579,-0.755205 -1.166667,-1.135417 C 67.343741,43.041659 66.875,42.645833 66.499997,42.348956 66.124994,42.052079 65.84375,41.854167 65.583331,41.734375 65.322912,41.614582 65.083333,41.572917 64.84375,41.53125 c 0,0 0.875,-0.625 0.875,-0.625 0.916667,-0.302083 1.833333,-0.604167 2.791677,-0.854169 0.958343,-0.250002 1.958323,-0.447914 8.526152,-0.572915 6.56783,-0.125 18.703004,-0.177083 30.838421,-0.229166 z"
         id="path3"
         inkscape:original-d="m 100.27658,48.92295 c 0,0 -26.08908,0.01455 -26.08908,0.01455 0,0 -0.631137,0.100786 -0.946705,0.151179 -0.371976,0.125219 -1.115903,0.37565 -1.115903,0.37565 0,0 -0.397748,0.15468 -0.397748,0.15468 0,0 -0.287262,-1.491554 -0.287262,-1.491554 0,0 -0.213605,-0.508233 -0.320408,-0.762349 C 70.725475,46.837143 70.331491,46.309202 69.9375,45.78125 69.614577,45.364575 69.291667,44.947917 68.96875,44.53125 68.583326,44.166659 68.197917,43.802083 67.8125,43.4375 67.343741,43.041659 66.875,42.645833 66.40625,42.25 c -0.281256,-0.197921 -0.5625,-0.395833 -0.84375,-0.59375 -0.239588,-0.04167 -0.71875,-0.125 -0.71875,-0.125 0,0 0.875,-0.625 0.875,-0.625 0,0 1.833333,-0.604167 2.75,-0.90625 1.00002,-0.197921 2,-0.395833 3,-0.59375 C 83.604409,39.354166 107.875,39.25 107.875,39.25 Z"
         inkscape:path-effect="#path-effect3" />
    </g>
    <path
       style="fill:#d2a9a9"
       d="m 57.5,-2 c -44,-18.666667 -88,-37.333333 -132,-56"
       id="path4"
       inkscape:original-d="m 57.5,-2 c -44,-18.666667 -88,-37.333333 -132,-56"
       inkscape:path-effect="#path-effect4" />
  </g>
</svg>
